<?xml version="1.0" encoding="UTF-8"?>
<svg id="Ebene_1" xmlns="http://www.w3.org/2000/svg" version="1.1" viewBox="0 0 183 209">
  <!-- Generator: Adobe Illustrator 29.2.0, SVG Export Plug-In . SVG Version: 2.1.0 Build 108)  -->
  <defs>
    <style>
      .st0 {
        fill-rule: evenodd;
      }
    </style>
  </defs>
  <path class="st0" d="M183,58.8v124.1c0,14.4-11.7,26.1-26.1,26.1v-13.1c7.2,0,13.1-5.9,13.1-13.1V58.7h-26.1c-10.8,0-19.6-8.8-19.6-19.6V13H52.4c-7.2,0-13.1,5.9-13.1,13.1v117.6h-13.1V26.1C26.2,11.7,37.9,0,52.3,0h71.9s58.8,58.8,58.8,58.8ZM59.7,207.1h21.7c3.6,0,6.7-.6,9.4-1.7,2.7-1.2,4.9-2.9,6.4-5,1.6-2.2,2.3-4.9,2.3-8s-.5-4.6-1.6-6.7c-1-1.8-2.5-3.2-4.2-4.2-1.8-1-3.8-1.6-5.8-1.8v-.5c1.7-.4,3.2-1.1,4.6-2.1,1.4-1,2.4-2.3,3.2-3.8.8-1.7,1.2-3.6,1.2-5.5,0-4-1.4-7.2-4.2-9.4-2.8-2.3-6.5-3.4-11.2-3.4h-21.8M70,162.6h9.1c2.4,0,4.3.6,5.6,1.8,1.4,1.2,2,2.9,2,5s-.3,2.7-1.1,3.9c-.8,1.1-1.9,2-3.3,2.4-1.8.6-3.7.9-5.7.8h-6.8v-14h.2ZM70,183.8h9.8c2,0,3.7.3,5.1,1,1.3.6,2.4,1.5,3.1,2.8.8,1.3,1.1,2.8,1.1,4.2,0,2.5-.9,4.4-2.7,5.7-1.8,1.3-4.7,1.9-8.8,1.9h-7.7v-15.5h0ZM9.3,207.1v-34.8h.5l12.4,28.2h6.7l12.4-28.2h.5v34.8h9.3v-52.3h-10.5l-14.9,33.9h-.3l-14.9-33.9H0v52.3h9.3Z"/>
  <path d="M105.5,199.4l25.6-36.3h-25.6v-8.3h36.1v8.3l-24.2,35.7h24.2v8.3h-36.1v-7.8h0Z"/>
</svg>