<?xml version="1.0" encoding="UTF-8"?>
<svg id="Ebene_1" xmlns="http://www.w3.org/2000/svg" version="1.1" viewBox="0 0 311.1 311.1">
  <!-- Generator: Adobe Illustrator 29.2.0, SVG Export Plug-In . SVG Version: 2.1.0 Build 108)  -->
  <defs>
    <style>
      .st0 {
        fill: #192127;
      }
    </style>
  </defs>
  <path class="st0" d="M95,298.9c-18.5-7.8-35.2-19-49.5-33.3-14.3-14.3-25.5-30.9-33.3-49.4C4.1,196.9,0,176.6,0,155.6h5.7H0c0-21,4.1-41.3,12.2-60.5,7.8-18.5,19.1-35.2,33.3-49.5,14.3-14.3,30.9-25.5,49.4-33.3C114.2,4.1,134.6,0,155.6,0s41.4,4.1,60.6,12.2c18.5,7.8,35.2,19,49.5,33.3,14.3,14.3,25.5,30.9,33.3,49.5,8.1,19.2,12.2,39.6,12.2,60.6s-7.2,54.4-21,78.1l10.8,48.6c1.2,5.3-.4,10.7-4.2,14.5s-9.2,5.4-14.5,4.2l-48.6-10.8c-23.6,13.7-50.6,21-78.1,21s-41.4-4.1-60.6-12.2h0ZM233.9,278.6l50.7,11.2c2.1.5,3.5-.7,4-1.2.5-.5,1.6-1.9,1.2-4l-11.2-50.7c-.3-1.4,0-2.9.7-4.2,13.4-22.3,20.5-48,20.5-74.2s-3.8-38.3-11.3-56.1c-7.3-17.2-17.7-32.6-30.9-45.8-13.2-13.2-28.7-23.6-45.8-30.9-17.8-7.5-36.7-11.3-56.1-11.3s-38.3,3.8-56.1,11.3c-17.2,7.3-32.6,17.7-45.8,30.9-13.2,13.2-23.6,28.7-30.9,45.8-7.5,17.8-11.3,36.6-11.3,56.1s3.8,38.4,11.3,56.1c7.3,17.2,17.7,32.6,30.9,45.8,13.2,13.2,28.7,23.6,45.8,30.9,17.8,7.5,36.7,11.3,56.1,11.3s51.8-7.1,74.2-20.5c.9-.5,1.9-.8,2.9-.8s.8,0,1.2.1h0Z"/>
  <path class="st0" d="M71.2,215.7c-11.3-15.8-17.9-34.4-19-54.1,0-1.4,1-2.5,2.4-2.5h35.2c1.3,0,2.3,1,2.4,2.3.5,15.9,2.8,31.1,6.9,45,.4,1.3-.4,2.6-1.7,2.9-7.9,2-15.7,4.4-23.4,7.2-1,.4-2.1,0-2.8-.9h0ZM258.9,161.6c-1.1,19.6-7.7,38.2-19,54.1-.6.9-1.7,1.2-2.8.9-7.7-2.8-15.5-5.2-23.4-7.2-1.3-.3-2.1-1.7-1.7-2.9,4.1-13.8,6.4-29.1,6.9-45,0-1.3,1.1-2.3,2.4-2.3h35.2c1.4,0,2.4,1.1,2.4,2.5h0ZM239.9,95.5c11.3,15.8,17.9,34.4,19,54,0,1.4-1,2.5-2.4,2.5h-35.2c-1.3,0-2.3-1-2.4-2.3-.5-15.9-2.8-31.2-6.9-45-.4-1.3.4-2.6,1.7-2.9,7.9-2,15.7-4.4,23.4-7.2,1-.4,2.1,0,2.8.8h0ZM152,111.3v38.4c0,1.3-1.1,2.4-2.4,2.4h-48c-1.3,0-2.4-1.1-2.4-2.4.5-15.4,2.8-30.2,6.8-43.5.3-1.2,1.5-1.9,2.7-1.6,13.4,2.7,27,4.2,40.9,4.5,1.3,0,2.3,1.1,2.3,2.4ZM149.6,101.8c-12.8-.3-25.3-1.7-37.7-4.1-1.4-.3-2.3-1.8-1.8-3.2,1.8-4.6,3.9-8.9,6.2-13,9.1-16.2,20.6-26.3,32.9-28.9,1.5-.3,2.9.8,2.9,2.3v44.4c0,1.3-1.1,2.4-2.4,2.4h0ZM162,52.7c12.3,2.6,23.8,12.6,32.9,28.9,2.3,4.1,4.3,8.4,6.2,13,.6,1.4-.3,2.9-1.8,3.2-12.4,2.4-25,3.7-37.7,4.1-1.3,0-2.4-1-2.4-2.4v-44.4c0-1.5,1.4-2.6,2.9-2.3h0ZM161.4,108.9c13.8-.3,27.5-1.8,40.9-4.5,1.2-.2,2.4.5,2.7,1.6,4,13.3,6.3,28.1,6.8,43.5,0,1.3-1,2.4-2.4,2.4h-48c-1.3,0-2.4-1.1-2.4-2.4v-38.4c0-1.3,1-2.3,2.3-2.4ZM211.9,161.6c-.5,15.4-2.8,30.2-6.8,43.5-.4,1.2-1.5,1.9-2.7,1.6-13.4-2.7-27-4.2-40.8-4.5-1.3,0-2.3-1.1-2.3-2.4v-38.4c0-1.3,1.1-2.4,2.4-2.4h48c1.3,0,2.4,1.1,2.4,2.4h0ZM161.5,209.4c12.8.3,25.4,1.7,37.7,4.1,1.4.3,2.3,1.8,1.8,3.2-1.8,4.6-3.9,8.9-6.2,13-9.1,16.2-20.6,26.3-32.9,28.9-1.5.3-2.9-.8-2.9-2.3v-44.4c0-1.3,1.1-2.4,2.4-2.4h0ZM149.1,258.4c-12.3-2.6-23.8-12.6-32.9-28.9-2.3-4.1-4.3-8.4-6.2-13-.6-1.4.3-2.9,1.8-3.2,12.4-2.4,25-3.7,37.7-4.1,1.3,0,2.4,1,2.4,2.4v44.4c0,1.5-1.4,2.6-2.9,2.3h0ZM149.7,202.2c-13.8.3-27.5,1.8-40.8,4.5-1.2.2-2.4-.5-2.7-1.6-4-13.3-6.3-28.1-6.8-43.5,0-1.3,1-2.4,2.4-2.4h48c1.3,0,2.4,1.1,2.4,2.4v38.4c0,1.3-1,2.3-2.3,2.4h0ZM89.8,152h-35.2c-1.4,0-2.4-1.1-2.4-2.5,1.1-19.6,7.7-38.2,19-54.1.6-.9,1.7-1.2,2.8-.8,7.7,2.8,15.5,5.2,23.4,7.2,1.3.3,2.1,1.7,1.7,2.9-4.1,13.8-6.4,29.1-6.9,45,0,1.3-1.1,2.3-2.4,2.3ZM118.2,59c2.3-.9,4.3,1.9,2.6,3.8-3.8,4.4-7.4,9.5-10.7,15.4-2.7,4.8-5.1,10.1-7.3,15.6-.4,1.1-1.6,1.7-2.8,1.4-6.7-1.6-13.2-3.6-19.7-5.8-1.6-.6-2.1-2.6-1-3.8,1-1.1,2-2.1,3-3.1,10.4-10.4,22.5-18.2,35.8-23.4h0ZM231.8,85.4c1.2,1.3.6,3.3-1,3.8-6.5,2.2-13.1,4.2-19.7,5.8-1.1.3-2.3-.3-2.8-1.4-2.1-5.5-4.6-10.8-7.3-15.6-3.3-5.8-6.9-11-10.7-15.4-1.6-1.9.3-4.7,2.6-3.8,13.3,5.1,25.4,13,35.8,23.4,1,1,2,2.1,3,3.1h0ZM193,252.2c-2.3.9-4.3-1.9-2.6-3.8,3.8-4.4,7.4-9.5,10.7-15.4,2.7-4.9,5.1-10.1,7.3-15.6.4-1.1,1.6-1.7,2.8-1.4,6.6,1.6,13.2,3.6,19.7,5.8,1.6.6,2.1,2.6,1,3.8-1,1.1-2,2.1-3,3.1-10.4,10.4-22.5,18.2-35.8,23.4h0ZM79.4,225.7c-1.2-1.3-.7-3.3,1-3.8,6.5-2.2,13.1-4.2,19.7-5.8,1.1-.3,2.3.3,2.8,1.4,2.1,5.5,4.6,10.8,7.3,15.6,3.3,5.9,6.9,11,10.7,15.4,1.6,1.9-.3,4.7-2.6,3.8-13.3-5.1-25.4-13-35.8-23.4-1-1-2-2.1-3-3.1h0Z"/>
</svg>